<svg width="381" height="260" viewBox="0 0 381 260" fill="none" xmlns="http://www.w3.org/2000/svg">
<g opacity="0.3">
<mask id="mask0_1484_1064" style="mask-type:luminance" maskUnits="userSpaceOnUse" x="-52" y="0" width="462" height="261">
<path d="M410 0.155029H-52V260.155H410V0.155029Z" fill="white"/>
</mask>
<g mask="url(#mask0_1484_1064)">
<path d="M480.083 101.81L420.507 54.9101C401.569 39.8051 387.305 35.1332 377.452 35.364C364.503 35.667 336.895 45.4604 346.618 96.289C348.192 104.52 352.162 113.426 358.309 123.138C364.852 133.525 374.055 144.944 385.393 157.074C390.915 162.982 398.84 171.739 403.669 177.094" stroke="#C6C6C5" stroke-miterlimit="10"/>
<path d="M233.764 287.251L294.194 333.009C310.596 344.791 320.933 347.575 328.375 348.075C339.049 348.782 348.084 345.841 354.602 339.075C360.826 332.602 364.787 322.871 365.295 310.019C365.819 297.254 361.233 285.934 357.465 278.927C354.992 274.325 350.124 267.09 341.967 257.171C333.702 247.123 322.971 235.293 310.007 221.31C287.392 196.919 269.822 173.269 259.418 151.123C254.19 139.995 249.972 125.552 247.621 113.498" stroke="#C6C6C5" stroke-miterlimit="10"/>
<path d="M260.284 421.66C283.484 435.368 307.136 442.343 331.431 443.493L332.278 419.705C361.789 420.765 388.155 411.549 408.181 390.587C427.8 370.021 437.057 342.591 438.183 311.496C439.061 287.6 434.54 265.041 425.132 246.632C420.267 237.113 412.678 226.228 402.938 214.193C393.374 202.462 381.228 188.884 366.546 173.134C352.383 157.943 341.067 143.475 333.587 130.135C326.265 117.153 322.263 104.209 321.205 91.4559C319.634 72.6793 321.546 53.9002 331.296 36.8908C341.693 18.7514 358.461 10.8767 377.089 10.9247C391.918 10.9873 409.687 16.8951 430.115 33.3851" stroke="#454443" stroke-miterlimit="10"/>
<path d="M479.082 129.954L410.9 76.4375C393.448 62.7151 382.695 59.2815 377.816 59.8032C371.365 60.4957 365.124 64.7084 364.7 76.5914C364.351 86.3945 368.892 94.9256 372.032 101.12C374.163 104.818 378.061 109.694 383.03 116.138" stroke="#C6C6C5" stroke-miterlimit="10"/>
<path d="M300.89 118.047C298.08 108.396 296.09 96.5559 295.791 86.6205C295.002 61.5489 299.978 37.5665 314.595 17.0346C321.342 7.55606 331.621 -0.741839 340.735 -5.74318" stroke="#C6C6C5" stroke-miterlimit="10"/>
<path d="M482.085 45.5206L439.725 11.8529C417.808 -6.0197 396.528 -13.1634 376.728 -13.5193C363.836 -13.7381 351.628 -11.2254 340.738 -5.74078" stroke="#C6C6C5" stroke-miterlimit="10"/>
<path d="M349.999 191.656C333.017 173.401 317.324 153.4 308.866 137.129C306.696 132.955 303.746 126.408 302.136 122.149" stroke="#C6C6C5" stroke-miterlimit="10"/>
<path d="M413.888 311.003C414.649 290.817 410.111 272.002 402.579 257.397C398.516 249.515 391.846 239.837 382.618 228.519C374 217.949 363.083 205.77 349.996 191.661C349.072 190.665 349.128 189.11 350.121 188.184L366.43 173.004" stroke="#454443" stroke-miterlimit="10"/>
<path d="M376.365 -37.9634C401.141 -37.3166 425.929 -28.9345 449.333 -9.67694L483.086 17.376" stroke="#454443" stroke-miterlimit="10"/>
<path d="M328.406 204.768C308.821 183.62 293.499 163.192 284.144 144.126C274.543 124.568 270.364 103.594 270.381 81.7851C270.376 50.8585 278.162 21.9998 297.086 -1.81424" stroke="#454443" stroke-miterlimit="10"/>
<path d="M373.074 355.596C383.369 344.473 388.891 329.082 389.592 310.512C390.234 294.037 385.677 278.965 380.022 268.162C376.755 261.92 370.985 253.463 362.292 242.845C353.601 232.229 342.388 219.824 328.854 205.251" stroke="#C6C6C5" stroke-miterlimit="10"/>
<path d="M273.124 111.214L250.494 115.467C249.156 115.72 247.859 114.837 247.624 113.5C245.53 101.68 244.705 89.4698 244.967 76.9545C245.747 39.2977 256.793 4.80292 281.194 -22.6684C291.326 -34.0753 302.435 -42.996 315.05 -49.4712L316.958 -50.4451" stroke="#454443" stroke-miterlimit="10"/>
<path d="M264.493 -42.5199C241.288 -17.7103 227.518 11.6774 222.097 45.1863L221.707 47.348" stroke="#C6C6C5" stroke-miterlimit="10"/>
<path d="M385.982 119.755C386.939 118.799 386.939 117.25 385.982 116.294C385.026 115.338 383.475 115.338 382.518 116.294C381.562 117.25 381.562 118.799 382.518 119.755C383.475 120.711 385.026 120.711 385.982 119.755Z" fill="#7B7B7B"/>
<path d="M329.923 206.285C330.761 205.447 330.761 204.089 329.923 203.252C329.085 202.414 327.726 202.414 326.888 203.252C326.05 204.089 326.05 205.448 326.888 206.285C327.726 207.123 329.085 207.123 329.923 206.285Z" fill="#7B7B7B"/>
<path d="M304.546 123.131C306.222 121.456 306.222 118.742 304.546 117.068C302.871 115.393 300.154 115.393 298.479 117.068C296.804 118.742 296.804 121.456 298.479 123.131C300.154 124.805 302.871 124.805 304.546 123.131Z" fill="white" stroke="#454443" stroke-miterlimit="10"/>
<path d="M221.296 51.6063L221.039 53.7127C220.271 59.8922 219.78 65.7447 219.554 72.1214C218.464 102.985 222.672 132.061 234.698 158.123C245.927 183.274 265.852 209.8 291.165 237.372C303.616 250.71 313.765 262.052 321.648 271.499C329.227 280.754 333.214 286.746 334.915 289.694C336.77 292.914 341.409 300.474 341.002 309.529C340.699 316.3 338.505 320.13 336.744 321.905C334.766 323.9 331.566 324.754 327.237 324.203C324.14 323.812 317.254 322.075 302.673 310.847L237.824 260.915" stroke="#454443" stroke-miterlimit="10"/>
<path d="M221.373 53.7511C223.742 53.7511 225.663 51.8317 225.663 49.4639C225.663 47.0962 223.742 45.1767 221.373 45.1767C219.004 45.1767 217.083 47.0962 217.083 49.4639C217.083 51.8317 219.004 53.7511 221.373 53.7511Z" fill="white" stroke="#454443" stroke-miterlimit="10"/>
</g>
</g>
</svg>
