<svg width="109" height="109" viewBox="0 0 109 109" fill="none" xmlns="http://www.w3.org/2000/svg">
<rect x="10.75" y="10.75" width="94.5" height="94.5" rx="7.25" stroke="#454443" stroke-width="1.5"/>
<rect x="3.75" y="3.75" width="21.5" height="21.5" rx="10.75" fill="white" stroke="#454443" stroke-width="1.5"/>
<path d="M63.6956 37.7148L63.7165 37.7204M72.8799 70.3335L72.9008 70.3391M87.3191 41.5315L78.523 74.3587C78.1898 75.6025 77.4297 76.6773 76.4099 77.3467C75.3902 78.016 74.1944 78.2252 73.0855 77.9281L52.1809 72.3267C51.072 72.0295 50.141 71.2505 49.5925 70.161C49.0441 69.0714 48.9232 67.7605 49.2565 66.5168L58.0525 33.6896C58.3858 32.4458 59.1459 31.3711 60.1656 30.7017C61.1853 30.0323 62.3812 29.8232 63.49 30.1203L84.3947 35.7217C85.5035 36.0188 86.4346 36.7978 86.983 37.8874C87.5314 38.9769 87.6523 40.2878 87.3191 41.5315Z" stroke="#454443" stroke-width="1.5" stroke-linecap="round" stroke-linejoin="round"/>
<path d="M65.7744 63.4027L62.0161 52.3431L70.8007 44.6443L74.559 55.7039L65.7744 63.4027Z" stroke="#454443" stroke-width="1.5" stroke-linecap="round" stroke-linejoin="round"/>
<path d="M51.0102 37.9999L31.0017 46.2487C29.9404 46.6862 29.1132 47.5683 28.7021 48.7008C28.2909 49.8333 28.3296 51.1235 28.8095 52.2876L41.4759 83.0117C41.9558 84.1758 42.8377 85.1184 43.9275 85.6321C45.0173 86.1459 46.2258 86.1887 47.2871 85.7511L57.2914 81.6267M35.7168 52.0075L35.7368 51.9993" stroke="#454443" stroke-width="1.5" stroke-linecap="round" stroke-linejoin="round"/>
<path d="M45.5522 65.926L43.1468 64.3501L45.5304 53.0971L47.9358 54.6731" stroke="#454443" stroke-width="1.5" stroke-linecap="round" stroke-linejoin="round"/>
</svg>
