<svg width="381" height="148" viewBox="0 0 381 148" fill="none" xmlns="http://www.w3.org/2000/svg">
<path d="M62.8269 -25.1484C68.9434 60.1879 119.151 96.6725 157 104.143L158.206 104.381L152.478 -25.1484H211.603L214.872 48.7871L215.956 48.6905C234.084 47.0713 252.21 37.7533 267.165 24.2271C281.945 10.86 293.701 -6.68108 299.341 -25.1484H357.484C349.459 19.4035 310.847 52.3287 282.953 65.9949L280.917 66.993L283.105 67.8271C312.104 78.8812 359.034 107.651 379.447 159.478H315.444C299.616 123.963 263.992 96.5642 217.901 92.8271L216.816 92.7393L219.767 159.478H213.463C150.701 159.478 99.6186 142.002 63.2298 110.118C27.064 78.429 5.30083 32.4081 1.07103 -25.1484H62.8269Z" stroke="white" stroke-opacity="0.2" stroke-width="2"/>
</svg>
