<svg width="186" height="329" viewBox="0 0 186 329" fill="none" xmlns="http://www.w3.org/2000/svg">
<path d="M25.8447 370.852L116.954 439.84C141.684 457.604 157.268 461.802 168.489 462.556C184.581 463.622 198.203 459.188 208.03 448.987C217.415 439.228 223.386 424.556 224.152 405.18C224.943 385.933 218.028 368.866 212.347 358.302C208.618 351.363 201.279 340.455 188.981 325.501C176.52 310.351 160.341 292.515 140.795 271.434C106.698 234.66 80.2091 199.002 64.523 165.613C56.6401 148.836 50.2807 127.059 46.7365 108.886" stroke="#C6C6C5" stroke-miterlimit="10"/>
<path d="M65.8291 573.499C100.807 594.166 136.467 604.683 173.096 606.416L174.373 570.552C218.866 572.15 258.618 558.255 288.812 526.65C318.392 495.643 332.347 454.287 334.045 407.405C335.369 371.378 328.553 337.366 314.368 309.611C307.033 295.259 295.592 278.847 280.907 260.703C266.487 243.015 248.174 222.544 226.038 198.798C204.686 175.894 187.625 154.081 176.346 133.968C165.307 114.396 159.274 94.8812 157.678 75.6529C155.309 47.3435 158.193 19.0304 172.893 -6.61446C188.568 -33.9632 213.849 -45.8358 241.935 -45.7633C264.292 -45.6691 291.082 -36.7619 321.881 -11.9" stroke="#454443" stroke-miterlimit="10"/>
<path d="M127.05 115.745C122.812 101.194 119.812 83.3429 119.363 68.3635C118.173 30.5632 125.675 -5.5949 147.713 -36.5508C157.885 -50.8414 173.382 -63.3521 187.124 -70.8926" stroke="#C6C6C5" stroke-miterlimit="10"/>
<path d="M201.091 226.724C175.487 199.202 151.827 169.047 139.076 144.515C135.803 138.221 131.356 128.35 128.929 121.93" stroke="#C6C6C5" stroke-miterlimit="10"/>
<path d="M168.536 246.492C139.006 214.608 115.905 183.808 101.801 155.064C87.3265 125.576 81.0252 93.9532 81.0506 61.0724C81.0434 14.4446 92.7825 -29.0654 121.314 -64.9697" stroke="#454443" stroke-miterlimit="10"/>
<path d="M235.88 473.896C251.403 457.125 259.728 433.92 260.784 405.922C261.753 381.082 254.882 358.359 246.357 342.071C241.43 332.66 232.731 319.91 219.624 303.901C206.521 287.896 189.616 269.193 169.21 247.221" stroke="#C6C6C5" stroke-miterlimit="10"/>
<path d="M85.1862 105.442L51.0679 111.855C49.0509 112.235 47.0956 110.905 46.7401 108.889C43.584 91.0675 42.3397 72.6586 42.7351 53.7892C43.9105 -2.98552 60.5652 -54.9931 97.3534 -96.4114C112.63 -113.609 129.379 -127.059 148.398 -136.822L151.275 -138.29" stroke="#454443" stroke-miterlimit="10"/>
<path d="M72.1736 -126.342C37.1883 -88.9367 16.4271 -44.6291 8.25394 5.89217L7.66626 9.15125" stroke="#C6C6C5" stroke-miterlimit="10"/>
<path d="M170.822 248.78C172.086 247.517 172.086 245.469 170.822 244.207C169.558 242.944 167.51 242.944 166.246 244.207C164.982 245.469 164.982 247.517 166.246 248.78C167.51 250.043 169.558 250.043 170.822 248.78Z" fill="#7B7B7B"/>
<path d="M132.562 123.408C135.088 120.884 135.088 116.792 132.562 114.267C130.036 111.743 125.941 111.743 123.415 114.267C120.889 116.792 120.889 120.884 123.415 123.408C125.941 125.933 130.036 125.933 132.562 123.408Z" fill="white" stroke="#454443" stroke-miterlimit="10"/>
<path d="M7.04641 15.5732L6.65827 18.7489C5.50104 28.0658 4.76098 36.8896 4.41997 46.5037C2.77664 93.0372 9.12147 136.874 27.2526 176.167C44.183 214.087 74.2237 254.081 112.387 295.651C131.16 315.761 146.462 332.861 158.346 347.104C169.773 361.058 175.784 370.092 178.349 374.537C181.146 379.391 188.14 390.788 187.527 404.441C187.07 414.65 183.761 420.425 181.106 423.1C178.124 426.109 173.299 427.396 166.773 426.566C162.104 425.975 151.722 423.358 129.738 406.428L31.9649 331.146" stroke="#454443" stroke-miterlimit="10"/>
<path d="M7.16227 18.8055C10.7345 18.8055 13.6304 15.9116 13.6304 12.3417C13.6304 8.77187 10.7345 5.87793 7.16227 5.87793C3.59001 5.87793 0.694092 8.77187 0.694092 12.3417C0.694092 15.9116 3.59001 18.8055 7.16227 18.8055Z" fill="white" stroke="#454443" stroke-miterlimit="10"/>
</svg>
